{
    "asset" : {
        "generator" : "Khronos glTF Blender I/O v3.4.50",
        "version" : "2.0"
    },
    "scene" : 0,
    "scenes" : [
        {
            "name" : "Scene",
            "nodes" : [
                0
            ]
        }
    ],
    "nodes" : [
        {
            "mesh" : 0,
            "name" : "GroundSand"
        }
    ],
    "meshes" : [
        {
            "name" : "Plane.005",
            "primitives" : [
                {
                    "attributes" : {
                        "POSITION" : 0,
                        "TEXCOORD_0" : 1,
                        "NORMAL" : 2
                    },
                    "indices" : 3
                }
            ]
        }
    ],
    "accessors" : [
        {
            "bufferView" : 0,
            "componentType" : 5126,
            "count" : 16175,
            "max" : [
                103.32392120361328,
                12.124457359313965,
                114.17971801757812
            ],
            "min" : [
                -89.42363739013672,
                -19.800636291503906,
                -85.1194076538086
            ],
            "type" : "VEC3"
        },
        {
            "bufferView" : 1,
            "componentType" : 5126,
            "count" : 16175,
            "type" : "VEC2"
        },
        {
            "bufferView" : 2,
            "componentType" : 5126,
            "count" : 16175,
            "type" : "VEC3"
        },
        {
            "bufferView" : 3,
            "componentType" : 5123,
            "count" : 96993,
            "type" : "SCALAR"
        }
    ],
    "bufferViews" : [
        {
            "buffer" : 0,
            "byteLength" : 194100,
            "byteOffset" : 0,
            "target" : 34962
        },
        {
            "buffer" : 0,
            "byteLength" : 129400,
            "byteOffset" : 194100,
            "target" : 34962
        },
        {
            "buffer" : 0,
            "byteLength" : 194100,
            "byteOffset" : 323500,
            "target" : 34962
        },
        {
            "buffer" : 0,
            "byteLength" : 193986,
            "byteOffset" : 517600,
            "target" : 34963
        }
    ],
    "buffers" : [
        {
            "byteLength" : 711588,
            "uri" : "data:application/octet-stream;base64,"
        }
    ]
}
