{
    "asset" : {
        "generator" : "Khronos glTF Blender I/O v3.4.50",
        "version" : "2.0"
    },
    "scene" : 0,
    "scenes" : [
        {
            "name" : "Scene",
            "nodes" : [
                0
            ]
        }
    ],
    "nodes" : [
        {
            "mesh" : 0,
            "name" : "RockBig"
        }
    ],
    "materials" : [
        {
            "doubleSided" : true,
            "name" : "ROCK",
            "pbrMetallicRoughness" : {
                "baseColorFactor" : [
                    0.800000011920929,
                    0.800000011920929,
                    0.800000011920929,
                    1
                ],
                "metallicFactor" : 0,
                "roughnessFactor" : 0.5
            }
        }
    ],
    "meshes" : [
        {
            "name" : "Cube.161_dmg.046",
            "primitives" : [
                {
                    "attributes" : {
                        "COLOR_0" : 0,
                        "POSITION" : 1,
                        "TEXCOORD_0" : 2,
                        "NORMAL" : 3
                    },
                    "indices" : 4,
                    "material" : 0
                }
            ]
        }
    ],
    "accessors" : [
        {
            "bufferView" : 0,
            "componentType" : 5123,
            "count" : 3564,
            "normalized" : true,
            "type" : "VEC4"
        },
        {
            "bufferView" : 1,
            "componentType" : 5126,
            "count" : 3564,
            "max" : [
                5.486515045166016,
                13.50493335723877,
                8.814537048339844
            ],
            "min" : [
                -5.899136543273926,
                -12.856291770935059,
                -9.449135780334473
            ],
            "type" : "VEC3"
        },
        {
            "bufferView" : 2,
            "componentType" : 5126,
            "count" : 3564,
            "type" : "VEC2"
        },
        {
            "bufferView" : 3,
            "componentType" : 5126,
            "count" : 3564,
            "type" : "VEC3"
        },
        {
            "bufferView" : 4,
            "componentType" : 5123,
            "count" : 9405,
            "type" : "SCALAR"
        }
    ],
    "bufferViews" : [
        {
            "buffer" : 0,
            "byteLength" : 28512,
            "byteOffset" : 0,
            "target" : 34962
        },
        {
            "buffer" : 0,
            "byteLength" : 42768,
            "byteOffset" : 28512,
            "target" : 34962
        },
        {
            "buffer" : 0,
            "byteLength" : 28512,
            "byteOffset" : 71280,
            "target" : 34962
        },
        {
            "buffer" : 0,
            "byteLength" : 42768,
            "byteOffset" : 99792,
            "target" : 34962
        },
        {
            "buffer" : 0,
            "byteLength" : 18810,
            "byteOffset" : 142560,
            "target" : 34963
        }
    ],
    "buffers" : [
        {
            "byteLength" : 161372,
            "uri" : "data:application/octet-stream;base64,"
        }
    ]
}
