{
    "asset" : {
        "generator" : "Khronos glTF Blender I/O v3.4.50",
        "version" : "2.0"
    },
    "scene" : 0,
    "scenes" : [
        {
            "name" : "Scene",
            "nodes" : [
                0
            ]
        }
    ],
    "nodes" : [
        {
            "mesh" : 0,
            "name" : "RockSmall"
        }
    ],
    "materials" : [
        {
            "doubleSided" : true,
            "name" : "ROCK",
            "pbrMetallicRoughness" : {
                "baseColorFactor" : [
                    0.800000011920929,
                    0.800000011920929,
                    0.800000011920929,
                    1
                ],
                "metallicFactor" : 0,
                "roughnessFactor" : 0.5
            }
        }
    ],
    "meshes" : [
        {
            "name" : "Cube.123_dmg.004",
            "primitives" : [
                {
                    "attributes" : {
                        "POSITION" : 0,
                        "TEXCOORD_0" : 1,
                        "NORMAL" : 2
                    },
                    "indices" : 3,
                    "material" : 0
                }
            ]
        }
    ],
    "accessors" : [
        {
            "bufferView" : 0,
            "componentType" : 5126,
            "count" : 3082,
            "max" : [
                5.784104824066162,
                10.976544380187988,
                7.036363124847412
            ],
            "min" : [
                -5.381382465362549,
                -10.988490104675293,
                -6.347202777862549
            ],
            "type" : "VEC3"
        },
        {
            "bufferView" : 1,
            "componentType" : 5126,
            "count" : 3082,
            "type" : "VEC2"
        },
        {
            "bufferView" : 2,
            "componentType" : 5126,
            "count" : 3082,
            "type" : "VEC3"
        },
        {
            "bufferView" : 3,
            "componentType" : 5123,
            "count" : 7962,
            "type" : "SCALAR"
        }
    ],
    "bufferViews" : [
        {
            "buffer" : 0,
            "byteLength" : 36984,
            "byteOffset" : 0,
            "target" : 34962
        },
        {
            "buffer" : 0,
            "byteLength" : 24656,
            "byteOffset" : 36984,
            "target" : 34962
        },
        {
            "buffer" : 0,
            "byteLength" : 36984,
            "byteOffset" : 61640,
            "target" : 34962
        },
        {
            "buffer" : 0,
            "byteLength" : 15924,
            "byteOffset" : 98624,
            "target" : 34963
        }
    ],
    "buffers" : [
        {
            "byteLength" : 114548,
            "uri" : "data:application/octet-stream;base64,"
        }
    ]
}
