{
    "asset" : {
        "generator" : "Khronos glTF Blender I/O v3.4.50",
        "version" : "2.0"
    },
    "scene" : 0,
    "scenes" : [
        {
            "name" : "Scene",
            "nodes" : [
                0
            ]
        }
    ],
    "nodes" : [
        {
            "mesh" : 0,
            "name" : "Temple_Door"
        }
    ],
    "meshes" : [
        {
            "name" : "TempleDoor.001_LOD2",
            "primitives" : [
                {
                    "attributes" : {
                        "POSITION" : 0,
                        "TEXCOORD_0" : 1,
                        "NORMAL" : 2
                    },
                    "indices" : 3
                },
                {
                    "attributes" : {
                        "POSITION" : 4,
                        "TEXCOORD_0" : 5,
                        "NORMAL" : 6
                    },
                    "indices" : 7
                }
            ]
        }
    ],
    "accessors" : [
        {
            "bufferView" : 0,
            "componentType" : 5126,
            "count" : 7896,
            "max" : [
                7.109697341918945,
                5.670518398284912,
                0.6368334293365479
            ],
            "min" : [
                -7.109697341918945,
                -8.26414966583252,
                -0.6374346017837524
            ],
            "type" : "VEC3"
        },
        {
            "bufferView" : 1,
            "componentType" : 5126,
            "count" : 7896,
            "type" : "VEC2"
        },
        {
            "bufferView" : 2,
            "componentType" : 5126,
            "count" : 7896,
            "type" : "VEC3"
        },
        {
            "bufferView" : 3,
            "componentType" : 5123,
            "count" : 19158,
            "type" : "SCALAR"
        },
        {
            "bufferView" : 4,
            "componentType" : 5126,
            "count" : 32903,
            "max" : [
                6.579477310180664,
                12.563559532165527,
                0.20239536464214325
            ],
            "min" : [
                -6.572301864624023,
                -12.596059799194336,
                -0.409576416015625
            ],
            "type" : "VEC3"
        },
        {
            "bufferView" : 5,
            "componentType" : 5126,
            "count" : 32903,
            "type" : "VEC2"
        },
        {
            "bufferView" : 6,
            "componentType" : 5126,
            "count" : 32903,
            "type" : "VEC3"
        },
        {
            "bufferView" : 7,
            "componentType" : 5123,
            "count" : 54336,
            "type" : "SCALAR"
        }
    ],
    "bufferViews" : [
        {
            "buffer" : 0,
            "byteLength" : 94752,
            "byteOffset" : 0,
            "target" : 34962
        },
        {
            "buffer" : 0,
            "byteLength" : 63168,
            "byteOffset" : 94752,
            "target" : 34962
        },
        {
            "buffer" : 0,
            "byteLength" : 94752,
            "byteOffset" : 157920,
            "target" : 34962
        },
        {
            "buffer" : 0,
            "byteLength" : 38316,
            "byteOffset" : 252672,
            "target" : 34963
        },
        {
            "buffer" : 0,
            "byteLength" : 394836,
            "byteOffset" : 290988,
            "target" : 34962
        },
        {
            "buffer" : 0,
            "byteLength" : 263224,
            "byteOffset" : 685824,
            "target" : 34962
        },
        {
            "buffer" : 0,
            "byteLength" : 394836,
            "byteOffset" : 949048,
            "target" : 34962
        },
        {
            "buffer" : 0,
            "byteLength" : 108672,
            "byteOffset" : 1343884,
            "target" : 34963
        }
    ],
    "buffers" : [
        {
            "byteLength" : 1452556,
            "uri" : "data:application/octet-stream;base64,"
        }
    ]
}
