{
    "asset" : {
        "generator" : "Khronos glTF Blender I/O v3.4.50",
        "version" : "2.0"
    },
    "scene" : 0,
    "scenes" : [
        {
            "name" : "Scene",
            "nodes" : [
                0
            ]
        }
    ],
    "nodes" : [
        {
            "mesh" : 0,
            "name" : "Temple_Stairs_End_Tiles"
        }
    ],
    "materials" : [
        {
            "doubleSided" : true,
            "name" : "STONE",
            "pbrMetallicRoughness" : {
                "baseColorFactor" : [
                    0.800000011920929,
                    0.800000011920929,
                    0.800000011920929,
                    1
                ],
                "metallicFactor" : 0,
                "roughnessFactor" : 0.5
            }
        }
    ],
    "meshes" : [
        {
            "name" : "Cube.166_dmg.012_dmg.046",
            "primitives" : [
                {
                    "attributes" : {
                        "POSITION" : 0,
                        "TEXCOORD_0" : 1,
                        "NORMAL" : 2
                    },
                    "indices" : 3,
                    "material" : 0
                }
            ]
        }
    ],
    "accessors" : [
        {
            "bufferView" : 0,
            "componentType" : 5126,
            "count" : 2647,
            "max" : [
                7.641052722930908,
                0.327841579914093,
                1.033980131149292
            ],
            "min" : [
                -7.655145168304443,
                -0.37091654539108276,
                -1.1812498569488525
            ],
            "type" : "VEC3"
        },
        {
            "bufferView" : 1,
            "componentType" : 5126,
            "count" : 2647,
            "type" : "VEC2"
        },
        {
            "bufferView" : 2,
            "componentType" : 5126,
            "count" : 2647,
            "type" : "VEC3"
        },
        {
            "bufferView" : 3,
            "componentType" : 5123,
            "count" : 4578,
            "type" : "SCALAR"
        }
    ],
    "bufferViews" : [
        {
            "buffer" : 0,
            "byteLength" : 31764,
            "byteOffset" : 0,
            "target" : 34962
        },
        {
            "buffer" : 0,
            "byteLength" : 21176,
            "byteOffset" : 31764,
            "target" : 34962
        },
        {
            "buffer" : 0,
            "byteLength" : 31764,
            "byteOffset" : 52940,
            "target" : 34962
        },
        {
            "buffer" : 0,
            "byteLength" : 9156,
            "byteOffset" : 84704,
            "target" : 34963
        }
    ],
    "buffers" : [
        {
            "byteLength" : 93860,
            "uri" : "data:application/octet-stream;base64,"
        }
    ]
}
