{
    "asset" : {
        "generator" : "Khronos glTF Blender I/O v3.4.50",
        "version" : "2.0"
    },
    "scene" : 0,
    "scenes" : [
        {
            "name" : "Scene",
            "nodes" : [
                0
            ]
        }
    ],
    "nodes" : [
        {
            "mesh" : 0,
            "name" : "TempleArc_Top"
        }
    ],
    "meshes" : [
        {
            "name" : "Cube.166_dmg.012_dmg.019",
            "primitives" : [
                {
                    "attributes" : {
                        "POSITION" : 0,
                        "TEXCOORD_0" : 1,
                        "NORMAL" : 2
                    },
                    "indices" : 3
                }
            ]
        }
    ],
    "accessors" : [
        {
            "bufferView" : 0,
            "componentType" : 5126,
            "count" : 9718,
            "max" : [
                9.66824722290039,
                4.846597671508789,
                1.3915634155273438
            ],
            "min" : [
                -9.66824722290039,
                -4.846597671508789,
                -1.3915634155273438
            ],
            "type" : "VEC3"
        },
        {
            "bufferView" : 1,
            "componentType" : 5126,
            "count" : 9718,
            "type" : "VEC2"
        },
        {
            "bufferView" : 2,
            "componentType" : 5126,
            "count" : 9718,
            "type" : "VEC3"
        },
        {
            "bufferView" : 3,
            "componentType" : 5123,
            "count" : 19080,
            "type" : "SCALAR"
        }
    ],
    "bufferViews" : [
        {
            "buffer" : 0,
            "byteLength" : 116616,
            "byteOffset" : 0,
            "target" : 34962
        },
        {
            "buffer" : 0,
            "byteLength" : 77744,
            "byteOffset" : 116616,
            "target" : 34962
        },
        {
            "buffer" : 0,
            "byteLength" : 116616,
            "byteOffset" : 194360,
            "target" : 34962
        },
        {
            "buffer" : 0,
            "byteLength" : 38160,
            "byteOffset" : 310976,
            "target" : 34963
        }
    ],
    "buffers" : [
        {
            "byteLength" : 349136,
            "uri" : "data:application/octet-stream;base64,"
        }
    ]
}
