{
    "asset" : {
        "generator" : "Khronos glTF Blender I/O v3.4.50",
        "version" : "2.0"
    },
    "scene" : 0,
    "scenes" : [
        {
            "name" : "Scene",
            "nodes" : [
                0
            ]
        }
    ],
    "nodes" : [
        {
            "mesh" : 0,
            "name" : "Temple_Debris_3"
        }
    ],
    "materials" : [
        {
            "doubleSided" : true,
            "name" : "STONE",
            "pbrMetallicRoughness" : {
                "baseColorFactor" : [
                    0.800000011920929,
                    0.800000011920929,
                    0.800000011920929,
                    1
                ],
                "metallicFactor" : 0,
                "roughnessFactor" : 0.5
            }
        }
    ],
    "meshes" : [
        {
            "name" : "Cube.166_dmg.012_dmg.005",
            "primitives" : [
                {
                    "attributes" : {
                        "POSITION" : 0,
                        "TEXCOORD_0" : 1,
                        "NORMAL" : 2
                    },
                    "indices" : 3,
                    "material" : 0
                }
            ]
        }
    ],
    "accessors" : [
        {
            "bufferView" : 0,
            "componentType" : 5126,
            "count" : 2642,
            "max" : [
                2.198209762573242,
                1.7912168502807617,
                3.86551570892334
            ],
            "min" : [
                -2.198209762573242,
                -1.7912168502807617,
                -3.86551570892334
            ],
            "type" : "VEC3"
        },
        {
            "bufferView" : 1,
            "componentType" : 5126,
            "count" : 2642,
            "type" : "VEC2"
        },
        {
            "bufferView" : 2,
            "componentType" : 5126,
            "count" : 2642,
            "type" : "VEC3"
        },
        {
            "bufferView" : 3,
            "componentType" : 5123,
            "count" : 4902,
            "type" : "SCALAR"
        }
    ],
    "bufferViews" : [
        {
            "buffer" : 0,
            "byteLength" : 31704,
            "byteOffset" : 0,
            "target" : 34962
        },
        {
            "buffer" : 0,
            "byteLength" : 21136,
            "byteOffset" : 31704,
            "target" : 34962
        },
        {
            "buffer" : 0,
            "byteLength" : 31704,
            "byteOffset" : 52840,
            "target" : 34962
        },
        {
            "buffer" : 0,
            "byteLength" : 9804,
            "byteOffset" : 84544,
            "target" : 34963
        }
    ],
    "buffers" : [
        {
            "byteLength" : 94348,
            "uri" : "data:application/octet-stream;base64,"
        }
    ]
}
