{
    "asset" : {
        "generator" : "Khronos glTF Blender I/O v3.4.50",
        "version" : "2.0"
    },
    "scene" : 0,
    "scenes" : [
        {
            "name" : "Scene",
            "nodes" : [
                0
            ]
        }
    ],
    "nodes" : [
        {
            "mesh" : 0,
            "name" : "Torch"
        }
    ],
    "materials" : [
        {
            "doubleSided" : true,
            "name" : "METAL",
            "pbrMetallicRoughness" : {
                "baseColorFactor" : [
                    0.25979799032211304,
                    0.25979799032211304,
                    0.25979799032211304,
                    1
                ],
                "metallicFactor" : 0,
                "roughnessFactor" : 0.5
            }
        }
    ],
    "meshes" : [
        {
            "name" : "Cube.166_dmg.012_dmg.004",
            "primitives" : [
                {
                    "attributes" : {
                        "POSITION" : 0,
                        "TEXCOORD_0" : 1,
                        "NORMAL" : 2
                    },
                    "indices" : 3,
                    "material" : 0
                }
            ]
        }
    ],
    "accessors" : [
        {
            "bufferView" : 0,
            "componentType" : 5126,
            "count" : 1145,
            "max" : [
                1.0217037200927734,
                1.9894955158233643,
                0.9826545715332031
            ],
            "min" : [
                -1.0217037200927734,
                -1.9894955158233643,
                -0.9826545715332031
            ],
            "type" : "VEC3"
        },
        {
            "bufferView" : 1,
            "componentType" : 5126,
            "count" : 1145,
            "type" : "VEC2"
        },
        {
            "bufferView" : 2,
            "componentType" : 5126,
            "count" : 1145,
            "type" : "VEC3"
        },
        {
            "bufferView" : 3,
            "componentType" : 5123,
            "count" : 5910,
            "type" : "SCALAR"
        }
    ],
    "bufferViews" : [
        {
            "buffer" : 0,
            "byteLength" : 13740,
            "byteOffset" : 0,
            "target" : 34962
        },
        {
            "buffer" : 0,
            "byteLength" : 9160,
            "byteOffset" : 13740,
            "target" : 34962
        },
        {
            "buffer" : 0,
            "byteLength" : 13740,
            "byteOffset" : 22900,
            "target" : 34962
        },
        {
            "buffer" : 0,
            "byteLength" : 11820,
            "byteOffset" : 36640,
            "target" : 34963
        }
    ],
    "buffers" : [
        {
            "byteLength" : 48460,
            "uri" : "data:application/octet-stream;base64,"
        }
    ]
}
